<?xml version="1.0" encoding="utf-8"?>
<!-- Generator: Adobe Illustrator 23.0.3, SVG Export Plug-In . SVG Version: 6.00 Build 0)  -->
<svg version="1.1" id="レイヤー_1" xmlns="http://www.w3.org/2000/svg" xmlns:xlink="http://www.w3.org/1999/xlink" x="0px"
	 y="0px" viewBox="0 0 255.1 289.3" style="enable-background:new 0 0 255.1 289.3;" xml:space="preserve">
<style type="text/css">
	.st0{fill:#264DE4;}
	.st1{fill:#2965F1;}
	.st2{fill:#EBEBEB;}
	.st3{fill:#FFFFFF;}
</style>
<path class="st0" d="M127.4,289.3L23.2,260.4L0,0h255.1l-23.2,260.4L127.4,289.3L127.4,289.3z"/>
<path class="st1" d="M212,243.8l19.9-222.5H127.6v245.9L212,243.8L212,243.8z"/>
<path class="st2" d="M53.2,117.9l2.9,31.9h71.5v-31.9H53.2L53.2,117.9z"/>
<path class="st2" d="M47.5,53.2l2.9,31.9h77.2V53.2H47.5L47.5,53.2z"/>
<path class="st2" d="M127.6,200.8l-0.1,0l-35.6-9.6l-2.3-25.5H57.5l4.5,50.1l65.4,18.2l0.1,0V200.8L127.6,200.8z"/>
<path class="st3" d="M201.7,117.9l5.8-64.6h-80v31.9h45l-2.9,32.7h-42.1v31.9h39.3l-3.7,41.4l-35.6,9.6v33.2l65.5-18.1l0.5-5.4
	l7.5-84.1L201.7,117.9L201.7,117.9z"/>
</svg>
