<?xml version="1.0" encoding="utf-8"?>
<!-- Generator: Adobe Illustrator 23.0.3, SVG Export Plug-In . SVG Version: 6.00 Build 0)  -->
<svg version="1.1" id="レイヤー_1" xmlns="http://www.w3.org/2000/svg" xmlns:xlink="http://www.w3.org/1999/xlink" x="0px"
	 y="0px" viewBox="0 0 106.5 106.5" style="enable-background:new 0 0 106.5 106.5;" xml:space="preserve">
<style type="text/css">
	.st0{fill:#DE4C36;}
</style>
<path class="st0" d="M104.5,48.5L58,2c-2.7-2.7-7-2.7-9.7,0l-9.7,9.7l12.3,12.3c2.8-1,6.1-0.3,8.4,2c2.3,2.3,2.9,5.6,1.9,8.4
	L73,46.1c2.9-1,6.2-0.3,8.4,1.9c3.2,3.2,3.2,8.4,0,11.5c-3.2,3.2-8.4,3.2-11.5,0c-2.4-2.4-3-5.9-1.8-8.9l-11-11l0,29
	c0.8,0.4,1.5,0.9,2.2,1.5c3.2,3.2,3.2,8.4,0,11.5c-3.2,3.2-8.4,3.2-11.5,0c-3.2-3.2-3.2-8.4,0-11.5c0.8-0.8,1.7-1.4,2.7-1.8V39.2
	c-1-0.4-1.9-1-2.7-1.8c-2.4-2.4-3-6-1.8-8.9L33.9,16.4L2,48.3c-2.7,2.7-2.7,7,0,9.7l46.5,46.5c2.7,2.7,7,2.7,9.7,0l46.3-46.3
	C107.2,55.5,107.2,51.2,104.5,48.5"/>
</svg>
