<?xml version="1.0" encoding="utf-8"?>
<!-- Generator: Adobe Illustrator 23.0.3, SVG Export Plug-In . SVG Version: 6.00 Build 0)  -->
<svg version="1.1" id="レイヤー_1" xmlns="http://www.w3.org/2000/svg" xmlns:xlink="http://www.w3.org/1999/xlink" x="0px"
	 y="0px" viewBox="0 0 89.8 89" style="enable-background:new 0 0 89.8 89;" xml:space="preserve">
<style type="text/css">
	.st0{fill-rule:evenodd;clip-rule:evenodd;fill:#21609B;}
</style>
<g transform="translate(0.000000, 8.827586)">
	<path class="st0" d="M87.7,57.2l-0.4,1c-6.9,13.3-19,21.5-36.3,21.9c-8.1,0.2-15.8-1.9-20.8-4.2c-10.9-4.9-20-13.9-25-23.6
		C-2,38.5-3.3,19.2,11.6,4.8c0.2,0-1.8,3.1-1.6,3.1L9.6,9.2C-1.1,42.8,32,71.6,64.1,68.3C71.8,67.5,81.7,63.3,87.7,57.2"/>
	<path class="st0" d="M68.3,43.3c8.1,0.1,16.5-3.7,21.5-9c-4.4,11.1-17,18.3-34,16C41.5,48.4,28,34,26.6,19.7
		C25.6,9.3,29.2,3,35.2-4.5c-2.1,4-2.9,7-3.1,8.9C29.9,27,50.2,43.2,68.3,43.3"/>
	<path class="st0" d="M89,15.3c-1.3,2.9-8.5,8.3-11.7,9C64.6,27,56.5,21,52.3,14.1c-0.6-1-1.8-3.8-2-4.5c-1.6-5.6-0.9-14.1,4-18.5
		c-1.5,4.2-1.7,9-0.9,12.2c0.5,1.9,1.9,5.2,3.3,7.3c2.6,3.8,4.3,4.7,7.6,6.8c1.5,0.9,3.1,1.6,3.8,1.8C71.4,20.2,78.1,22.7,89,15.3"
		/>
</g>
</svg>
